<?xml version="1.0" encoding="UTF-8" standalone="no"?>
<!-- Created with Inkscape (http://www.inkscape.org/) -->

<svg
   width="48"
   height="48"
   viewBox="0 0 48 48"
   version="1.1"
   id="svg1"
   xmlns="http://www.w3.org/2000/svg"
   xmlns:svg="http://www.w3.org/2000/svg">
  <defs
     id="defs1" />
  <g
     id="layer1">
    <path
       id="path1"
       style="fill:#ffff00;fill-opacity:1;stroke:none;stroke-width:3.77951;stroke-opacity:1"
       d="m 7.5204382,0.02060328 -0.00608,3.31341092 -0.00608,3.3133945 1.9880435,0.00343 1.9880423,0.00343 -0.03221,17.3401473 -0.0322,17.340149 -1.9880428,-0.0035 -1.9880419,-0.0035 -0.00608,3.313395 -0.00608,3.313409 16.8983537,0.03142 16.898355,0.03142 0.0157,-8.504392 0.0157,-8.504409 -2.98206,-0.0051 -2.982064,-0.0051 -8.04e-4,0.441798 -8.05e-4,0.441779 1.988033,0.0035 1.988043,0.0035 -0.0025,1.104475 -0.0025,1.104477 -0.662685,-0.0017 -0.662681,-0.0017 -0.0017,0.662678 -0.0017,0.662678 -0.662676,-0.0017 -0.662689,-0.0017 -0.0032,1.877587 -0.0032,1.877606 0.331345,4.04e-4 0.331334,4.23e-4 0.0025,-1.435806 0.0025,-1.435808 0.662677,0.0017 0.662679,0.0017 0.0017,-0.773129 0.0017,-0.773128 0.662686,0.0017 0.662676,0.0017 0.0025,-1.435808 0.0025,-1.435807 0.331333,4.05e-4 0.331345,4.23e-4 -0.0032,1.767156 -0.0032,1.767153 -0.662678,-0.0017 -0.662685,-0.0017 -8.05e-4,0.441781 -8.03e-4,0.441796 0.662674,0.0017 0.662679,0.0017 -0.01024,5.522328 -0.01024,5.522345 -0.994019,-0.0017 -0.994021,-0.0017 8.06e-4,-0.441781 8.03e-4,-0.441796 0.662688,0.0017 0.662676,0.0017 0.0032,-1.767137 0.0032,-1.767156 -0.331344,-4.21e-4 -0.33134,-4.22e-4 -0.0025,1.435822 -0.0025,1.435807 -0.662686,-0.0017 -0.66268,-0.0017 -0.0017,0.773114 -0.0017,0.773126 -1.656698,-0.0035 -1.656699,-0.0035 0.0025,-1.104459 0.0025,-1.104476 0.331343,4.23e-4 0.331333,4.22e-4 -0.0017,0.662678 -0.0017,0.66268 0.331344,4.22e-4 0.331343,4.07e-4 0.0025,-1.10446 0.0025,-1.104476 -0.99402,-0.0017 -0.994021,-0.0017 -0.0032,1.546257 -0.0032,1.546257 -0.331343,-4.22e-4 -0.331343,-4.23e-4 0.0017,-0.773128 0.0017,-0.77313 -0.331337,-4.22e-4 -0.331341,-4.2e-4 -0.0017,0.773126 -0.0017,0.773147 -1.656698,-0.0035 -1.656708,-0.0035 0.0017,-1.104476 0.0017,-1.104459 0.662678,0.0017 0.662679,0.0017 0.0017,-0.773128 0.0017,-0.773127 0.662677,0.0017 0.662686,0.0017 6.26e-4,-0.331329 6.26e-4,-0.331348 -0.994021,-0.0017 -0.994021,-0.0017 -8.03e-4,0.662679 -8.06e-4,0.662678 -0.331334,-4.05e-4 -0.331341,-4.22e-4 8.02e-4,-0.662679 8.05e-4,-0.662696 -0.331342,-4.05e-4 -0.331336,-4.23e-4 -0.0041,2.208933 -0.0041,2.208953 -1.656697,-0.0035 -1.656707,-0.0035 0.0017,-0.773128 0.0017,-0.773129 -0.331344,-4.23e-4 -0.331336,-4.2e-4 -0.0017,0.773126 -0.0017,0.773147 -3.644739,-0.0067 -3.644745,-0.0067 0.0014,-0.773128 0.0014,-0.773129 -0.331339,-4.03e-4 -0.331341,-4.23e-4 -0.0014,0.773128 -0.0014,0.773127 -2.319383,-0.0035 -2.319383,-0.0035 0.0014,-0.773128 0.0014,-0.773129 -0.662679,-0.0017 -0.662684,-0.0017 0.0027,-1.43579 0.0027,-1.435824 -0.9940205,-0.0017 -0.9940222,-0.0017 -6.261e-4,0.331349 -6.25e-4,0.33133 0.6626806,0.0017 0.6626802,0.0017 -0.002,1.104459 -0.002,1.104476 -0.3313412,-4.23e-4 -0.3313415,-4.22e-4 0.00145,-0.77311 0.00145,-0.773147 -0.3313403,-4.22e-4 -0.3313402,-4.06e-4 -0.00201,1.10446 -0.00201,1.104476 1.3253622,0.0017 1.32536,0.0017 -8.2e-4,0.441798 -8.24e-4,0.441797 -1.6567019,-0.0035 -1.6567033,-0.0035 0.0049,-2.650715 0.0049,-2.650733 1.656702,0.0035 1.6566992,0.0035 -0.0029,1.546257 -0.0029,1.546256 0.66268,0.0017 0.662682,0.0017 -0.0013,0.662696 -0.0013,0.662678 0.99402,0.0017 0.994023,0.0017 6.24e-4,-0.331348 6.26e-4,-0.331332 -0.662682,-0.0017 -0.66268,-0.0017 0.0014,-0.773129 0.0014,-0.773128 -0.662679,-0.0017 -0.662682,-0.0017 0.006,-3.313411 0.006,-3.313411 0.331343,4.22e-4 0.331339,4.21e-4 -0.0014,0.773129 -0.0014,0.773128 1.325361,0.0017 1.325362,0.0017 -6.26e-4,0.33133 -6.26e-4,0.331348 -1.325362,-0.0017 -1.325362,-0.0017 -8.23e-4,0.441798 -8.21e-4,0.441778 1.656702,0.0035 1.656702,0.0035 0.0029,-1.546255 0.0029,-1.546256 0.994019,0.0017 0.994023,0.0017 -0.0029,1.546274 -0.0029,1.546255 0.331339,4.08e-4 0.331341,4.22e-4 0.0036,-1.877605 0.0036,-1.877587 -1.656703,-0.0035 -1.656701,-0.0035 -0.0014,0.773128 -0.0014,0.773129 -0.994019,-0.0017 -0.994024,-0.0017 0.0014,-0.773128 0.0014,-0.773128 -0.662679,-0.0017 -0.662683,-0.0017 0.002,-1.104458 0.002,-1.104476 0.331341,4.22e-4 0.331342,4.2e-4 -0.0014,0.773129 -0.0014,0.773128 0.331341,4.06e-4 0.33134,4.22e-4 0.0014,-0.773128 0.0014,-0.773127 0.662682,0.0017 0.66268,0.0017 0.0014,-0.773128 0.0014,-0.773111 0.331341,4.05e-4 0.331339,4.21e-4 -0.002,1.104462 -0.002,1.104474 -0.662682,-0.0017 -0.662681,-0.0017 -0.002,1.104476 -0.002,1.104475 0.33134,4.06e-4 0.331341,4.23e-4 0.0013,-0.662681 0.0013,-0.662677 1.325363,0.0017 1.325361,0.0017 8.04e-4,-0.44178 8.04e-4,-0.441781 -0.66268,-0.0017 -0.662682,-0.0017 0.002,-1.10446 0.002,-1.104474 0.662682,0.0017 0.66268,0.0017 0.0032,-1.767138 0.0032,-1.767154 -0.33134,-4.22e-4 -0.33134,-4.05e-4 -0.0027,1.435807 -0.0027,1.435807 -1.32536,-0.0017 -1.325362,-0.0017 -0.0014,0.773128 -0.0014,0.773145 -0.994021,-0.0017 -0.99402,-0.0017 0.0036,-1.877587 0.0036,-1.877606 1.325363,0.0017 1.325362,0.0017 0.002,-1.104477 0.002,-1.104459 -0.331342,-4.21e-4 -0.331341,-4.07e-4 -0.0014,0.773129 -0.0014,0.77311 -0.994021,-0.0017 -0.994019,-0.0017 0.0049,-2.650731 0.005,-2.650716 0.994021,0.0017 0.994023,0.0017 -0.0014,0.773128 -0.0014,0.773129 0.994019,0.0017 0.994022,0.0017 6.26e-4,-0.331331 6.26e-4,-0.331347 -0.662681,-0.0017 -0.662681,-0.0017 8.05e-4,-0.441779 8.03e-4,-0.441798 1.988042,0.0035 1.988044,0.0035 6.26e-4,-0.33133 6.27e-4,-0.331348 -0.662682,-0.0017 -0.662681,-0.0017 0.0025,-1.435806 0.0027,-1.435809 -0.331339,-4.21e-4 -0.331342,-4.22e-4 -0.0013,0.662695 -0.0013,0.662679 -0.66268,-0.0017 -0.66268,-0.0017 -8.05e-4,0.441795 -8.05e-4,0.441782 0.662681,0.0017 0.662681,0.0017 -6.26e-4,0.331348 -6.26e-4,0.331332 -0.994022,-0.0017 -0.994022,-0.0017 0.0014,-0.773129 0.0014,-0.773126 -0.331339,-4.23e-4 -0.331342,-4.07e-4 -0.0014,0.773129 -0.0014,0.773129 -0.99402,-0.0017 -0.994023,-0.0017 0.002,-1.104477 0.002,-1.104475 0.33134,4.22e-4 0.331341,4.22e-4 -0.0014,0.773128 -0.0014,0.773129 0.331341,4.04e-4 0.331341,4.24e-4 0.0014,-0.773129 0.0014,-0.773128 1.325359,0.0017 1.325361,0.0017 0.0014,-0.773126 0.0014,-0.773129 1.325361,0.0017 1.325363,0.0017 0.002,-1.104459 0.002,-1.104476 -0.331342,-4.05e-4 -0.331339,-4.23e-4 -0.0014,0.773128 -0.0014,0.773128 -1.656699,-0.0035 -1.656704,-0.0035 0.002,-1.104462 0.002,-1.104473 0.994022,0.0017 0.994021,0.0017 -6.26e-4,0.331349 -6.27e-4,0.331348 -0.662682,-0.0017 -0.662679,-0.0017 -8.07e-4,0.441795 -8.03e-4,0.441781 0.994021,0.0017 0.994022,0.0017 0.0014,-0.773127 0.0014,-0.773129 0.662682,0.0017 0.662679,0.0017 6.26e-4,-0.331332 6.25e-4,-0.331349 -1.325361,-0.0017 -1.325359,-0.0017 0.005,-2.650716 0.005,-2.650714 0.33134,4.06e-4 0.331342,4.22e-4 -0.0041,2.208933 -0.0041,2.208952 0.331341,4.06e-4 0.331339,4.23e-4 0.0013,-0.66268 0.0013,-0.662678 0.66268,0.0017 0.662681,0.0017 8.05e-4,-0.441796 8.03e-4,-0.441781 -0.662679,-0.0017 -0.662681,-0.0017 0.002,-1.104474 0.002,-1.104458 0.662679,0.0017 0.662681,0.0017 0.0032,-1.7671377 0.0032,-1.767154 -0.331337,-4.226e-4 -0.331343,-4.063e-4 -0.0027,1.4357917 -0.0027,1.4358059 -0.331341,-4.23e-4 -0.33134,-4.05e-4 0.0014,-0.7731278 0.0014,-0.7731275 -0.331342,-4.227e-4 -0.331341,-4.225e-4 -0.0014,0.7731274 -0.0014,0.7731451 -0.994022,-0.0017 -0.99402,-0.0017 6.25e-4,-0.331348 6.25e-4,-0.3313304 0.662682,0.00167 0.662679,0.00167 0.002,-1.1044577 0.002,-1.1044769 -0.331341,-4.227e-4 -0.33134,-4.213e-4 -0.0013,0.6626952 -0.0013,0.6626796 -0.662682,-0.00167 -0.66268,-0.00167 -0.0036,1.8776032 -0.0036,1.877587 0.33134,4.22e-4 0.331342,4.21e-4 0.0014,-0.773127 0.0014,-0.773129 0.33134,4.06e-4 0.331341,4.22e-4 -0.002,1.104477 -0.002,1.104459 -0.66268,-0.0017 -0.662681,-0.0017 -8.23e-4,0.44178 -8.23e-4,0.441797 0.662681,0.0017 0.662681,0.0017 -0.002,1.104459 -0.002,1.104476 -0.331342,-4.22e-4 -0.331338,-4.07e-4 0.0014,-0.773127 0.0014,-0.773145 -0.662681,-0.0017 -0.662682,-0.0017 0.0014,-0.77313 0.0014,-0.773127 -0.331343,-4.23e-4 -0.331337,-4.05e-4 -0.0036,1.877588 -0.0036,1.877603 0.33134,4.06e-4 0.331341,4.22e-4 0.0014,-0.773128 0.0014,-0.773129 0.33134,4.23e-4 0.33134,4.23e-4 -0.002,1.104458 -0.002,1.104459 -0.662681,-0.0017 -0.662681,-0.0017 -0.002,1.104459 -0.002,1.104478 0.331342,4.19e-4 0.33134,4.23e-4 0.0013,-0.662694 0.0013,-0.66268 0.331342,4.22e-4 0.33134,4.23e-4 -0.0013,0.662678 -0.0013,0.662681 0.662681,0.0017 0.66268,0.0017 -8.05e-4,0.441799 -8.03e-4,0.441779 -1.656703,-0.0035 -1.6567,-0.0035 0.01024,-5.522346 0.01024,-5.5223446 0.331337,4.228e-4 0.331343,4.048e-4 -0.0027,1.435822 -0.0027,1.435792 0.331341,4.21e-4 0.33134,4.22e-4 0.0046,-2.540282 0.0046,-2.5402651 -0.331341,-4.211e-4 -0.331341,-4.227e-4 -0.0013,0.6626951 -0.0013,0.6626789 -0.331342,-4.225e-4 -0.331338,-4.205e-4 0.002,-1.1044779 0.002,-1.1044588 0.994021,0.00164 0.99402,0.00164 -0.0014,0.7731271 -0.0014,0.7731285 0.331339,4.226e-4 0.331342,4.212e-4 0.0014,-0.7731436 0.0014,-0.773112 0.994021,0.00164 0.994021,0.00164 -0.0014,0.773145 -0.0014,0.7731107 0.331341,4.226e-4 0.33134,4.225e-4 0.0014,-0.7731285 0.0014,-0.7731271 0.662681,0.00164 0.66268,0.00164 6.26e-4,-0.3313484 6.25e-4,-0.3313468 -1.325361,-0.00164 -1.325361,-0.00164 6.26e-4,-0.3313483 6.26e-4,-0.3313304 1.325362,0.00164 1.325362,0.00164 8.04e-4,-0.4417803 8.04e-4,-0.4417803 -0.662683,-8.493e-4 -0.662678,-8.493e-4 6.26e-4,-0.3313303 6.25e-4,-0.3313484 0.99402,0.00164 0.994021,0.00164 -0.0017,0.7731271 -0.0017,0.7731285 0.331343,6.258e-4 0.331334,6.256e-4 0.0017,-0.7731285 0.0017,-0.7731272 0.994021,0.00164 0.994021,0.00164 -0.0017,0.7731121 -0.0017,0.7731271 0.331344,6.27e-4 0.331343,6.257e-4 0.0017,-1.1044767 0.0017,-1.1044754 -1.325364,-0.00164 -1.325365,-0.00164 0.0017,-0.7731284 0.0017,-0.7731271 -0.331336,-6.256e-4 -0.331344,-6.256e-4 -0.0017,0.7731269 -0.0017,0.7731285 -0.994016,-0.00164 -0.994023,-0.00164 0.0014,-0.7731271 0.0014,-0.7731285 -3.644744,-0.00672 -3.644743,-0.00672 -6.27e-4,0.3313483 -6.25e-4,0.3313318 1.988041,0.00343 1.988044,0.00343 -0.0029,1.5462555 -0.003,1.5462569 0.33134,6.257e-4 0.33134,6.257e-4 0.0029,-1.5462557 0.003,-1.5462569 0.994023,0.00164 0.994019,0.00164 -0.002,1.1044589 -0.002,1.1044767 -0.33134,-6.27e-4 -0.331342,-6.257e-4 0.0013,-0.6626785 0.0013,-0.6626788 -0.33134,-6.256e-4 -0.33134,-6.256e-4 -0.0027,1.4358236 -0.0027,1.435807 -1.656702,-0.00343 -1.656702,-0.00343 0.0014,-0.7731271 0.0014,-0.7731285 -0.331342,-6.256e-4 -0.331339,-6.258e-4 -0.0014,0.7731286 -0.0014,0.7731284 -0.994022,-0.00164 -0.9940191,-0.00164 0.00134,-0.7731106 0.00134,-0.7731284 -0.3317592,-2.573e-4 -0.3313415,-6.257e-4 -0.00146,0.7731271 -0.00134,0.7731285 -0.3313415,-4.227e-4 -0.331339,-4.21e-4 0.00556,-2.9820642 0.00556,-2.98206265 -0.3312389,-5.1732e-4 z m 1.3253607,0.0016436 -0.00358,1.87760382 -0.00358,1.8775873 0.6626817,8.495e-4 0.6626814,8.039e-4 -0.0014,0.7731451 -0.0014,0.7731283 0.331341,6.258e-4 0.33134,6.256e-4 0.0014,-0.7731105 0.0014,-0.7731285 0.994021,0.00164 0.994023,0.00164 -0.0014,0.7731286 -0.0014,0.7731284 0.331341,6.257e-4 0.331339,6.256e-4 0.002,-1.1044587 0.002,-1.1044589 -1.988042,-0.00343 -1.9880437,-0.00343 0.00201,-1.1044754 0.00201,-1.10445895 4.3074257,0.008509 4.307425,0.008509 -0.0013,0.66267855 -0.0013,0.6626787 0.331341,6.257e-4 0.331339,6.257e-4 0.0013,-0.6626787 0.0013,-0.6626786 0.99402,0.001644 0.99402,0.001644 -8.06e-4,0.6626963 -8.03e-4,0.6626788 0.994021,0.00164 0.994021,0.00164 6.26e-4,-0.3313318 6.27e-4,-0.3313481 -0.662687,-8.041e-4 -0.662679,-8.493e-4 6.26e-4,-0.3313483 6.26e-4,-0.33133027 0.994022,0.001644 0.994022,0.001644 -0.005,2.54028377 -0.005,2.5402825 -0.994024,-0.00164 -0.993975,-0.00164 0.0017,-0.773127 0.0017,-0.773112 -0.331342,-6.257e-4 -0.331333,-6.256e-4 -0.0017,0.7731107 -0.0017,0.7731284 -0.662678,-0.00164 -0.662686,-0.00164 -0.0058,2.9820632 -0.0058,2.9820606 -0.662678,-0.0017 -0.662683,-0.0017 -6.26e-4,0.331331 -6.25e-4,0.331348 0.662682,0.0017 0.662675,0.0017 -0.0017,1.104476 -0.0017,1.104459 -0.662677,-0.0017 -0.662681,-0.0017 -6.25e-4,0.331333 -6.27e-4,0.331348 0.66268,0.0017 0.662676,0.0017 -0.005,2.650716 -0.005,2.650731 -0.662674,-0.0017 -0.66268,-0.0017 -0.002,1.104458 -0.002,1.10446 0.331343,4.22e-4 0.331339,4.22e-4 0.0014,-0.773128 0.0014,-0.773127 0.33134,4.22e-4 0.331344,4.22e-4 -0.0032,1.877587 -0.0032,1.877605 -1.325367,-0.0017 -1.325361,-0.0017 -0.0013,0.662679 -0.0013,0.662679 -1.656702,-0.0035 -1.656702,-0.0035 0.0013,-0.662697 0.0013,-0.662678 -0.331342,-4.05e-4 -0.33134,-4.23e-4 -0.0032,1.767138 -0.0032,1.767155 0.33134,4.22e-4 0.331341,4.05e-4 0.0013,-0.662678 0.0013,-0.662679 0.994021,0.0017 0.994021,0.0017 -0.0032,1.767153 -0.0032,1.767156 -1.32536,-0.0017 -1.325362,-0.0017 -0.002,1.104476 -0.002,1.104459 0.33134,4.23e-4 0.331342,4.22e-4 0.0013,-0.662679 0.0013,-0.662678 1.325361,0.0017 1.325358,0.0017 0.0029,-1.546257 0.0029,-1.546256 0.994023,0.0017 0.994023,0.0017 -0.005,2.65073 -0.005,2.650715 -0.662681,-0.0017 -0.66268,-0.0017 -6.26e-4,0.331347 -6.26e-4,0.331348 0.994022,0.0017 0.994021,0.0017 0.0075,-4.086537 0.0075,-4.086522 -0.331338,-4.22e-4 -0.331342,-4.23e-4 -0.0014,0.773127 -0.0014,0.773146 -0.99402,-0.0017 -0.994023,-0.0017 6.27e-4,-0.331331 6.25e-4,-0.331349 0.662681,0.0017 0.662681,0.0017 0.0014,-0.773129 0.0014,-0.77311 0.99402,0.0017 0.994019,0.0017 -0.0088,4.749201 -0.0088,4.749219 -0.662676,-0.0017 -0.662679,-0.0017 -8.07e-4,0.44178 -8.03e-4,0.441797 0.66268,0.0017 0.662684,0.0017 -0.005,2.540283 -0.005,2.540281 -0.994024,-0.0017 -0.994021,-0.0017 0.0027,-1.435807 0.0027,-1.435808 -0.331342,-4.22e-4 -0.331339,-4.24e-4 -0.0025,1.435826 -0.0027,1.435805 -1.988044,-0.0035 -1.988041,-0.0035 -6.27e-4,0.33133 -6.24e-4,0.331348 1.988042,0.0035 1.988043,0.0035 -0.002,1.104474 -0.002,1.104458 -0.331341,-4.22e-4 -0.331339,-4.05e-4 0.0013,-0.662678 0.0013,-0.662697 -0.331342,-4.22e-4 -0.33134,-4.05e-4 -0.0013,0.662678 -0.0013,0.66268 -0.331341,-4.2e-4 -0.331342,-4.24e-4 0.0013,-0.66268 0.0013,-0.662661 -0.99402,-0.0017 -0.994021,-0.0017 -6.26e-4,0.331348 -6.25e-4,0.331329 0.662681,0.0017 0.662679,0.0017 -0.0014,0.773145 -0.0014,0.773128 0.662678,0.0017 0.662681,0.0017 -0.0013,0.662678 -0.0013,0.66268 0.33134,4.21e-4 0.331341,4.23e-4 0.0013,-0.662679 0.0013,-0.662679 0.994022,0.0017 0.99402,0.0017 -0.0013,0.662679 -0.0013,0.662679 1.656703,0.0035 1.656706,0.0035 8.06e-4,-0.662678 8.04e-4,-0.66268 0.662685,0.0017 0.66268,0.0017 8.04e-4,-0.441781 8.04e-4,-0.441797 -1.325364,-0.0017 -1.325364,-0.0017 6.26e-4,-0.331348 6.25e-4,-0.331348 1.325356,0.0017 1.325364,0.0017 6.25e-4,-0.331331 6.27e-4,-0.331348 -2.319386,-0.0035 -2.319383,-0.0035 -6.26e-4,0.331347 -6.25e-4,0.331349 0.662678,0.0017 0.662679,0.0017 -0.0017,0.773129 -0.0017,0.773129 0.662679,0.0017 0.662677,0.0017 -6.26e-4,0.331332 -6.25e-4,0.331346 -0.994022,-0.0017 -0.994025,-0.0017 0.0014,-0.773127 0.0014,-0.773146 -0.66268,-0.0017 -0.66268,-0.0017 0.002,-1.104475 0.002,-1.10446 2.982066,0.0051 2.982062,0.0051 -0.0032,1.877588 -0.0032,1.877605 -0.662677,-0.0017 -0.662686,-0.0017 -6.26e-4,0.331333 -6.25e-4,0.331347 0.994021,0.0017 0.994021,0.0017 0.0025,-1.435789 0.0025,-1.435826 1.325356,0.0017 1.325362,0.0017 6.26e-4,-0.331348 6.25e-4,-0.331331 -1.325364,-0.0017 -1.325364,-0.0017 8.04e-4,-0.44178 8.05e-4,-0.44178 1.656698,0.0035 1.656701,0.0035 -0.0032,1.877587 -0.0032,1.877604 -0.331342,-4.07e-4 -0.331336,-4.21e-4 0.0017,-0.773128 0.0017,-0.773129 -0.994021,-0.0017 -0.994021,-0.0017 -8.03e-4,0.441798 -8.04e-4,0.441782 0.662676,0.0017 0.662688,0.0017 -8.06e-4,0.66268 -8.04e-4,0.662678 0.994021,0.0017 0.994021,0.0017 0.0041,-2.208952 0.0041,-2.208934 2.982071,0.0051 2.982055,0.0051 -8.07e-4,0.44178 -8.03e-4,0.441782 -0.662678,-0.0017 -0.662678,-0.0017 -8.04e-4,0.662662 -8.04e-4,0.662698 -0.662678,-0.0017 -0.662688,-0.0017 -0.0017,0.773128 -0.0017,0.773127 -0.662686,-0.0017 -0.662678,-0.0017 -6.25e-4,0.331347 -6.26e-4,0.331349 0.994023,0.0017 0.994019,0.0017 8.06e-4,-0.662678 8.03e-4,-0.662678 0.662687,0.0017 0.662678,0.0017 0.0017,-0.77311 0.0017,-0.773146 1.988034,0.0035 1.988042,0.0035 4.18e-4,-0.331331 4.2e-4,-0.331348 -1.325358,-0.0017 -1.325364,-0.0017 8.05e-4,-0.44178 8.04e-4,-0.441799 0.662686,0.0017 0.662679,0.0017 0.0017,-0.662662 0.0017,-0.662679 1.325365,0.0017 1.325357,0.0017 0.0017,-0.773129 0.0017,-0.773126 0.331336,4.21e-4 0.331341,4.22e-4 -0.0025,1.10446 -0.0025,1.104475 -1.325364,-0.0017 -1.325365,-0.0017 -4.17e-4,0.331347 -4.18e-4,0.331348 0.662677,0.0017 0.662686,0.0017 -0.0025,1.10446 -0.0025,1.104476 -0.662678,-0.0017 -0.662678,-0.0017 -0.0025,1.104475 -0.0025,1.104458 0.331334,4.23e-4 0.331344,4.23e-4 0.0017,-0.662679 0.0017,-0.662678 0.662687,0.0017 0.662678,0.0017 0.0032,-1.546255 0.0032,-1.546239 0.662677,0.0017 0.662676,0.0017 0.005,-2.540283 0.005,-2.540266 -0.994018,-0.0017 -0.994021,-0.0017 -4.17e-4,0.331347 -4.2e-4,0.331331 0.662677,0.0017 0.662688,0.0017 -8.05e-4,0.44178 -8.05e-4,0.441781 -0.662679,-0.0017 -0.662686,-0.0017 -0.0017,0.662679 -0.0017,0.662679 -0.994023,-0.0017 -0.994021,-0.0017 0.005,-2.540283 0.005,-2.540266 0.662678,0.0017 0.662686,0.0017 4.1e-4,-0.331332 4.19e-4,-0.331348 -0.662679,-0.0017 -0.662676,-0.0017 8.05e-4,-0.441798 8.03e-4,-0.441779 1.325364,0.0017 1.325364,0.0017 4.12e-4,-0.331349 4.17e-4,-0.331329 -1.656698,-0.0035 -1.656709,-0.0035 -0.0082,4.417871 -0.0082,4.417871 -7.620826,-0.01359 -7.620824,-0.01359 0.03217,-17.340149 0.03219,-17.340148 1.988041,0.00343 1.988042,0.00343 0.0058,-3.3134123 0.0058,-3.31339316 -7.620832,-0.01358337 z" />
  </g>
</svg>
